<svg id="a3aa8379-e6cf-48e9-bc18-bac21944fec4" data-name="Camada 1" xmlns="http://www.w3.org/2000/svg" width="450" height="144" viewBox="0 0 450 144"><defs><style>.f6791f1b-8ea9-4cca-b3e4-1bd0b3373988{fill:#e32021;}.e33b7adb-0aea-4123-9b8a-8b9ced4f8345{fill:#fff;}.a405650c-9a4e-4528-890d-5dfe4e77ebd2{fill:#1d1d1b;}</style></defs><polygon class="f6791f1b-8ea9-4cca-b3e4-1bd0b3373988" points="2.05 84.03 1.5 5.21 18.59 5.21 17.48 32.22 25.2 26.71 45.59 26.16 52.21 38.83 50 81.83 39.53 81.27 38.98 41.04 32.92 36.08 26.3 34.97 15.83 44.35 13.63 83.47 2.05 84.03 2.05 84.03"/><polygon class="f6791f1b-8ea9-4cca-b3e4-1bd0b3373988" points="69.84 40.49 58.82 40.49 58.82 31.12 68.19 22.3 93.54 22.3 102.91 33.87 102.36 56.47 100.16 77.41 106.77 76.86 108.97 75.21 112.28 75.21 113.93 80.17 99.05 87.89 88.58 78.52 70.95 87.89 55.51 74.11 54.96 56.47 64.33 47.1 75.35 43.79 82.52 43.79 87.48 47.65 89.13 47.1 89.13 32.77 84.17 30.01 75.35 29.46 72.05 34.97 69.84 40.49 69.84 40.49"/><polygon class="e33b7adb-0aea-4123-9b8a-8b9ced4f8345" points="88.58 58.12 82.52 53.71 73.15 53.16 67.09 57.57 67.64 67.49 76.45 74.66 88.58 70.25 88.58 58.12 88.58 58.12"/><polygon class="f6791f1b-8ea9-4cca-b3e4-1bd0b3373988" points="103.47 21.2 120 21.75 127.17 64.19 129.92 64.74 143.7 22.85 154.17 24.5 136.53 80.72 118.34 81.27 103.47 21.2 103.47 21.2"/><polygon class="f6791f1b-8ea9-4cca-b3e4-1bd0b3373988" points="152.51 43.24 154.17 33.87 170.7 23.95 188.89 25.05 200.47 36.63 199.37 85.13 188.89 86.23 188.34 77.96 186.14 76.31 172.36 85.67 165.74 85.13 152.51 78.52 148.11 62.53 155.82 48.75 174.56 46 186.14 51.51 188.34 51.51 187.79 39.38 180.07 33.32 170.7 33.87 166.85 37.18 165.19 43.24 152.51 43.24 152.51 43.24"/><polygon class="e33b7adb-0aea-4123-9b8a-8b9ced4f8345" points="163.54 70.25 164.09 60.33 172.91 53.16 187.79 61.43 187.79 69.69 175.11 74.66 169.05 75.76 163.54 70.25 163.54 70.25"/><polygon class="f6791f1b-8ea9-4cca-b3e4-1bd0b3373988" points="204.88 85.67 204.88 41.04 218.1 40.49 215.35 85.13 204.88 85.67 204.88 85.67"/><polygon class="f6791f1b-8ea9-4cca-b3e4-1bd0b3373988" points="208.74 36.63 204.88 33.32 204.88 25.05 209.28 20.64 216.45 20.64 220.31 27.26 220.31 32.22 216.45 34.97 208.74 36.63 208.74 36.63"/><path class="f6791f1b-8ea9-4cca-b3e4-1bd0b3373988" d="M235.74,43.24H224.17V37.18l2.75-5L240.7,24h23.15l8.81,12.68-.54,17.63L269.36,70.8l-.55,9.37s3.85,9.37,13.78,9.37,12.68-5,12.68-5l1.65-7.72,11-1.1-3.3,14.33s-12.13,5.52-17.09,6.06S269.36,94.5,264.4,89l-5-5.52v-5l-1.65-1.11-16.53,9.92-18.75-9.92L220.31,68v-4.4l6.61-12.13,16.54-6.06,14.87,9.36-.54-19.29-7.72-5L239.6,35l-3.86,8.27Z"/><polygon class="e33b7adb-0aea-4123-9b8a-8b9ced4f8345" points="236.3 72.45 235.74 61.98 241.8 54.81 246.76 54.81 258.33 61.43 258.33 70.25 244.56 77.41 240.7 77.96 236.3 72.45 236.3 72.45"/><polygon class="f6791f1b-8ea9-4cca-b3e4-1bd0b3373988" points="315.66 79.62 323.93 77.96 328.89 36.08 317.86 24.5 298.57 24.5 291.96 30.56 291.41 21.75 277.63 21.2 277.08 81.27 289.21 81.27 290.85 41.04 299.67 34.97 310.7 34.97 315.66 40.49 315.66 79.62 315.66 79.62"/><polygon class="f6791f1b-8ea9-4cca-b3e4-1bd0b3373988" points="333.86 42.14 346.53 41.59 348.73 35.52 352.59 32.22 357.55 31.12 364.17 30.01 370.24 34.97 369.68 49.3 362.52 43.79 343.23 45.45 331.1 55.37 331.65 68.04 333.86 77.41 350.94 85.67 368.58 75.21 370.24 80.72 380.15 87.33 388.97 83.47 390.07 78.52 383.46 79.62 380.15 78.52 380.71 68.59 382.91 51.51 384.01 33.87 371.34 21.75 348.19 21.75 335.5 30.56 333.86 37.18 333.86 42.14 333.86 42.14"/><polygon class="e33b7adb-0aea-4123-9b8a-8b9ced4f8345" points="345.98 69.14 344.88 60.33 350.39 51.51 359.76 51.51 370.24 60.33 369.13 67.49 356.45 73 349.29 73 345.98 69.14 345.98 69.14"/><path class="f6791f1b-8ea9-4cca-b3e4-1bd0b3373988" d="M428.1,42.14l-5.51-11.58-7.16-1.65-7.72,2.76L405,37.18l-1.1,6.06,2.2,3.31h24.8L441.33,57l.55,7.17-2.76,2.2V73l-19.29,9.93-5.5,1.1-12.69-3.31-8.81-1.65-5.52-13.78v-5l13.79.55,2.2,10.47,14.88,4.41,6.61-4.41L427,63.64l-7.71-9.38h-21l-4.41-.55s-9.92-10.47,0-25.35l15.43-7.16,27.56,3.31,2.2,16-11,1.65Z"/><polygon class="f6791f1b-8ea9-4cca-b3e4-1bd0b3373988" points="442.98 74.66 442.44 70.25 448.5 69.69 447.94 74.11 442.98 74.66 442.98 74.66"/><path class="a405650c-9a4e-4528-890d-5dfe4e77ebd2" d="M133.91,126.19a26.72,26.72,0,0,0,.31,4.5h-3.53l-.35-2.36h-.13a8.44,8.44,0,0,1-6.6,2.79c-4.37,0-6.6-2.67-6.6-5.39,0-4.53,4.63-7,13-7v-.39c0-1.56-.49-4.38-4.9-4.34a11.6,11.6,0,0,0-5.66,1.39l-.89-2.28a15.58,15.58,0,0,1,7.13-1.63c6.64,0,8.25,3.91,8.25,7.67v7Zm-3.84-5.07c-4.28-.07-9.13.58-9.13,4.22,0,2.25,1.69,3.26,3.65,3.26a5.44,5.44,0,0,0,5.3-3.14,3.2,3.2,0,0,0,.18-1.09v-3.25Z"/><path class="a405650c-9a4e-4528-890d-5dfe4e77ebd2" d="M139.65,127.24a12.23,12.23,0,0,0,5.22,1.32c2.81,0,4.14-1.2,4.14-2.79s-1.11-2.52-4-3.45c-3.92-1.24-5.75-3.06-5.75-5.31,0-3,2.85-5.5,7.44-5.5a11.2,11.2,0,0,1,5.26,1.16l-.93,2.45a9.79,9.79,0,0,0-4.42-1.09c-2.32,0-3.57,1.16-3.57,2.56,0,1.59,1.25,2.29,4.06,3.21,3.7,1.2,5.66,2.83,5.66,5.66,0,3.33-3,5.66-8,5.66a13.83,13.83,0,0,1-6.06-1.32l.93-2.56Z"/><polygon class="a405650c-9a4e-4528-890d-5dfe4e77ebd2" points="167.28 103.18 171.21 103.18 171.21 130.69 167.28 130.69 167.28 103.18 167.28 103.18"/><path class="a405650c-9a4e-4528-890d-5dfe4e77ebd2" d="M180,121.89c.08,4.61,3.43,6.51,7.35,6.51a17.31,17.31,0,0,0,6-.92l.71,2.39a19.66,19.66,0,0,1-7.22,1.21c-6.6,0-10.61-3.84-10.61-9.45s3.87-10.16,10.16-10.16c7,0,8.87,5.39,8.87,8.84a7.73,7.73,0,0,1-.13,1.63l-15.11,0Zm11.45-2.44c0-2.13-1-5.54-5.39-5.54a6,6,0,0,0-6,5.54Z"/><path class="a405650c-9a4e-4528-890d-5dfe4e77ebd2" d="M218.5,127.94c0,4.34-1,6.94-3.08,8.6a13,13,0,0,1-7.88,2.25,15.58,15.58,0,0,1-7.18-1.55l1-2.64a13,13,0,0,0,6.33,1.51c4,0,7-1.81,7-6.58v-2h-.09c-1.16,1.74-3.52,3.13-6.86,3.13a8.91,8.91,0,0,1-9.18-9.18,9.54,9.54,0,0,1,9.76-9.92c3.74,0,5.75,1.66,6.73,3.22h.09l.13-2.79h3.48a49,49,0,0,0-.18,5.11v10.89Zm-3.92-8.64a4.35,4.35,0,0,0-.22-1.51,5.53,5.53,0,0,0-5.49-3.65c-3.74,0-6.42,2.76-6.42,7.13,0,3.64,2.19,6.75,6.38,6.75a5.59,5.59,0,0,0,5.43-3.53,4.78,4.78,0,0,0,.32-1.82V119.3Z"/><path class="a405650c-9a4e-4528-890d-5dfe4e77ebd2" d="M233.17,104.11l-5.44,5.54H225l3.92-5.54ZM225,130.69V111.94h3.92v18.75Z"/><path class="a405650c-9a4e-4528-890d-5dfe4e77ebd2" d="M240.11,107.44v4.5h5.62v2.59h-5.62v10.11c0,2.33.76,3.65,2.95,3.65a8.75,8.75,0,0,0,2.28-.23l.17,2.59a12.24,12.24,0,0,1-3.48.47,6,6,0,0,1-4.23-1.44c-1.07-1-1.51-2.71-1.51-4.92V114.53h-3.35v-2.59h3.35v-3.45l3.82-1Z"/><path class="a405650c-9a4e-4528-890d-5dfe4e77ebd2" d="M252,108.49a2.29,2.29,0,0,1-2.46-2.21,2.31,2.31,0,0,1,2.55-2.17,2.26,2.26,0,0,1,2.49,2.17,2.31,2.31,0,0,1-2.54,2.21Zm-1.87,22.2V111.94h3.91v18.75Z"/><path class="a405650c-9a4e-4528-890d-5dfe4e77ebd2" d="M260.57,117c0-2-.08-3.52-.17-5.07h3.43l.18,3h.13a7.65,7.65,0,0,1,6.82-3.45,6.35,6.35,0,0,1,6.06,3.76h.09a7.8,7.8,0,0,1,2.45-2.44,7.91,7.91,0,0,1,4.73-1.32c2.89,0,7.13,1.63,7.13,8.14v11h-3.84V120.07c0-3.64-1.55-5.77-4.67-5.77a5.12,5.12,0,0,0-4.69,3.06,5.58,5.58,0,0,0-.31,1.71v11.62h-3.83V119.45c0-3-1.52-5.15-4.5-5.15a5.3,5.3,0,0,0-4.86,3.4,4.24,4.24,0,0,0-.31,1.67v11.32h-3.84V117Z"/><path class="a405650c-9a4e-4528-890d-5dfe4e77ebd2" d="M313,126.19a29.08,29.08,0,0,0,.3,4.5h-3.52l-.35-2.36h-.14a8.41,8.41,0,0,1-6.59,2.79c-4.37,0-6.6-2.67-6.6-5.39,0-4.53,4.63-7,13-7v-.39c0-1.56-.5-4.38-4.91-4.34a11.6,11.6,0,0,0-5.66,1.39l-.9-2.28a15.65,15.65,0,0,1,7.14-1.63c6.64,0,8.25,3.91,8.25,7.67v7Zm-3.84-5.07c-4.28-.07-9.13.58-9.13,4.22,0,2.25,1.69,3.26,3.65,3.26a5.43,5.43,0,0,0,5.3-3.14,3,3,0,0,0,.18-1.09v-3.25Z"/><path class="a405650c-9a4e-4528-890d-5dfe4e77ebd2" d="M318.7,127.24a12.15,12.15,0,0,0,5.21,1.32c2.81,0,4.14-1.2,4.14-2.79s-1.11-2.52-4-3.45c-3.92-1.24-5.76-3.06-5.76-5.31,0-3,2.86-5.5,7.46-5.5a11.19,11.19,0,0,1,5.25,1.16l-.93,2.45a9.83,9.83,0,0,0-4.42-1.09c-2.32,0-3.56,1.16-3.56,2.56,0,1.59,1.24,2.29,4.05,3.21,3.7,1.2,5.66,2.83,5.66,5.66,0,3.33-3,5.66-8,5.66a13.83,13.83,0,0,1-6.06-1.32l.94-2.56Z"/></svg>