<svg width="35" height="35" viewBox="0 0 35 35" fill="none" xmlns="http://www.w3.org/2000/svg">
<path d="M17.4301 0.719386C14.3823 0.718509 11.3899 1.52144 8.76414 3.04467C6.13837 4.5679 3.9751 6.75581 2.49928 9.38086C1.02346 12.0059 0.289002 14.9723 0.372276 17.9714C0.455551 20.9705 1.35352 23.893 2.9728 26.4347L3.37863 27.0694L1.65458 33.2631L8.11041 31.5971L8.73211 31.9597C11.3602 33.4919 14.3584 34.3002 17.4128 34.3001H17.4214C21.9454 34.3008 26.2844 32.5324 29.4839 29.3839C32.6834 26.2353 34.4813 21.9646 34.482 17.5111C34.4828 13.0577 32.6864 8.78634 29.488 5.63675C26.2896 2.48715 21.9512 0.717304 17.4272 0.716553L17.4301 0.719386ZM27.4578 24.7177C27.0805 25.3311 26.5784 25.8609 25.983 26.2739C25.3876 26.6869 24.7118 26.9742 23.9982 27.1176C22.9207 27.2995 21.815 27.2316 20.7688 26.9192C19.7767 26.6149 18.8015 26.2593 17.8474 25.8539C14.3064 24.1046 11.2882 21.4791 9.089 18.2351C7.8893 16.7333 7.16106 14.9194 6.99366 13.0161C6.97984 12.2304 7.1324 11.4505 7.44161 10.7261C7.75083 10.0017 8.20994 9.34867 8.78967 8.80855C8.961 8.61615 9.17089 8.46071 9.40616 8.35198C9.64143 8.24324 9.897 8.18358 10.1568 8.17672C10.4965 8.17672 10.839 8.17672 11.1383 8.19372C11.4549 8.20789 11.8751 8.07472 12.2896 9.06072C12.7213 10.0694 13.746 12.5542 13.8726 12.8064C13.9539 12.9386 14.0004 13.0887 14.0079 13.243C14.0155 13.3974 13.9838 13.5511 13.9158 13.6904C13.7866 13.9935 13.6141 14.2769 13.4034 14.5319C13.1444 14.8266 12.8652 15.1892 12.635 15.4159C12.3759 15.6681 12.1111 15.9401 12.4076 16.4444C13.1776 17.7422 14.1388 18.9205 15.2599 19.9407C16.4763 21.0053 17.8721 21.8529 19.3844 22.4454C19.8967 22.7004 20.196 22.6551 20.4954 22.3179C20.7947 21.9807 21.7762 20.8446 22.1187 20.3402C22.4612 19.8359 22.8008 19.9209 23.27 20.0881C23.7391 20.2552 26.2633 21.4764 26.7756 21.7314C27.288 21.9864 27.6305 22.1082 27.7571 22.3179C27.8975 23.1294 27.7934 23.9637 27.4578 24.7177Z" fill="white"/>
</svg>
