<svg width="116" height="22" viewBox="0 0 116 22" fill="none" xmlns="http://www.w3.org/2000/svg">
<path d="M58 0L60.4697 7.60081H68.4616L61.996 12.2984L64.4656 19.8992L58 15.2016L51.5344 19.8992L54.004 12.2984L47.5384 7.60081H55.5303L58 0Z" fill="#FDDE3C"/>
<path d="M11 0L13.4697 7.60081H21.4616L14.996 12.2984L17.4656 19.8992L11 15.2016L4.53436 19.8992L7.00402 12.2984L0.538379 7.60081H8.53035L11 0Z" fill="#FDDE3C"/>
<path d="M83 0L85.4697 7.60081H93.4616L86.996 12.2984L89.4656 19.8992L83 15.2016L76.5344 19.8992L79.004 12.2984L72.5384 7.60081H80.5303L83 0Z" fill="#FDDE3C"/>
<path d="M105 0L107.47 7.60081H115.462L108.996 12.2984L111.466 19.8992L105 15.2016L98.5344 19.8992L101.004 12.2984L94.5384 7.60081H102.53L105 0Z" fill="#FDDE3C"/>
<path d="M36 0L38.4697 7.60081H46.4616L39.996 12.2984L42.4656 19.8992L36 15.2016L29.5344 19.8992L32.004 12.2984L25.5384 7.60081H33.5303L36 0Z" fill="#FDDE3C"/>
</svg>
