<svg width="29" height="28" viewBox="0 0 29 28" fill="none" xmlns="http://www.w3.org/2000/svg">
<path d="M27.2326 0H1.28288C0.658818 0 0.154633 0.490917 0.154633 1.09856V26.3654C0.154633 26.973 0.658818 27.4639 1.28288 27.4639H27.2326C27.8566 27.4639 28.3608 26.973 28.3608 26.3654V1.09856C28.3608 0.490917 27.8566 0 27.2326 0ZM23.9748 8.01603H21.7218C19.9554 8.01603 19.6134 8.83308 19.6134 10.0346V12.6815H23.8302L23.2802 16.8251H19.6134V27.4639H15.2167V16.8285H11.5394V12.6815H15.2167V9.6261C15.2167 6.07982 17.4415 4.14705 20.6923 4.14705C22.2507 4.14705 23.5869 4.26034 23.9783 4.31183V8.01603H23.9748Z" fill="white"/>
</svg>
