<svg width="29" height="29" viewBox="0 0 29 29" fill="none" xmlns="http://www.w3.org/2000/svg">
<path d="M25.5619 0H2.64433C1.18995 0 0 1.18995 0 2.64433V25.5619C0 27.0162 1.18995 28.2062 2.64433 28.2062H25.5619C27.0162 28.2062 28.2062 27.0162 28.2062 25.5619V2.64433C28.2062 1.18995 27.0162 0 25.5619 0ZM19.3918 4.40722C19.3918 3.92242 19.7884 3.52577 20.2732 3.52577H23.799C24.2838 3.52577 24.6804 3.92242 24.6804 4.40722V7.93299C24.6804 8.41778 24.2838 8.81443 23.799 8.81443H20.2732C20.0396 8.81397 19.8156 8.72095 19.6504 8.55575C19.4852 8.39055 19.3922 8.16662 19.3918 7.93299V4.40722ZM14.1031 8.81443C15.4821 8.85004 16.7926 9.42286 17.7554 10.4108C18.7182 11.3987 19.257 12.7236 19.257 14.1031C19.257 15.4826 18.7182 16.8075 17.7554 17.7954C16.7926 18.7833 15.4821 19.3561 14.1031 19.3918C12.7241 19.3561 11.4135 18.7833 10.4508 17.7954C9.48804 16.8075 8.94923 15.4826 8.94923 14.1031C8.94923 12.7236 9.48804 11.3987 10.4508 10.4108C11.4135 9.42286 12.7241 8.85004 14.1031 8.81443ZM24.6804 23.799C24.6804 24.2838 24.2838 24.6804 23.799 24.6804H4.40722C4.17359 24.6799 3.94966 24.5869 3.78446 24.4217C3.61925 24.2565 3.52624 24.0326 3.52577 23.799V12.3402H5.46495C5.20317 13.621 5.22964 14.9441 5.54244 16.2134C5.85523 17.4828 6.44652 18.6666 7.27344 19.6792C8.10036 20.6917 9.1422 21.5076 10.3235 22.0677C11.5047 22.6278 12.7958 22.9181 14.1031 22.9175C15.4104 22.9181 16.7015 22.6278 17.8827 22.0677C19.064 21.5076 20.1058 20.6917 20.9327 19.6792C21.7597 18.6666 22.351 17.4828 22.6638 16.2134C22.9765 14.9441 23.003 13.621 22.7412 12.3402H24.6804V23.799Z" fill="white"/>
</svg>
