<svg width="29" height="29" viewBox="0 0 29 29" fill="none" xmlns="http://www.w3.org/2000/svg">
<path d="M27.433 0H2.36083C1.94524 0 1.54666 0.165095 1.25279 0.458967C0.958918 0.752838 0.793823 1.15141 0.793823 1.56701V26.6392C0.793823 27.0548 0.958918 27.4534 1.25279 27.7472C1.54666 28.0411 1.94524 28.2062 2.36083 28.2062H27.433C27.8486 28.2062 28.2472 28.0411 28.541 27.7472C28.8349 27.4534 29 27.0548 29 26.6392V1.56701C29 1.15141 28.8349 0.752838 28.541 0.458967C28.2472 0.165095 27.8486 0 27.433 0ZM9.16009 24.0332H4.97304V10.5726H9.16009V24.0332ZM7.06657 8.73452C6.42322 8.73452 5.80623 8.47895 5.35131 8.02404C4.8964 7.56912 4.64083 6.95213 4.64083 6.30878C4.64083 5.66544 4.8964 5.04845 5.35131 4.59353C5.80623 4.13862 6.42322 3.88305 7.06657 3.88305C7.70991 3.88305 8.3269 4.13862 8.78182 4.59353C9.23673 5.04845 9.4923 5.66544 9.4923 6.30878C9.4923 6.95213 9.23673 7.56912 8.78182 8.02404C8.3269 8.47895 7.70991 8.73452 7.06657 8.73452ZM24.8286 24.0332H20.6463V17.4878C20.6463 15.9271 20.6181 13.9198 18.4713 13.9198C16.2931 13.9198 15.9625 15.6215 15.9625 17.3781V24.0348H11.7833V10.5742H15.7948V12.4139H15.8528C16.4091 11.3561 17.7755 10.2404 19.8079 10.2404C24.0451 10.2404 24.8271 13.0266 24.8271 16.6526V24.0332H24.8286Z" fill="white"/>
</svg>
